<mxfile host="Electron" agent="Mozilla/5.0 (Windows NT 10.0; Win64; x64) AppleWebKit/537.36 (KHTML, like Gecko) draw.io/24.7.17 Chrome/128.0.6613.36 Electron/32.0.1 Safari/537.36" version="24.7.17">
  <diagram name="Страница — 1" id="EMUusFTnW7aunSgLmH3C">
    <mxGraphModel dx="1098" dy="828" grid="1" gridSize="10" guides="1" tooltips="1" connect="1" arrows="1" fold="1" page="1" pageScale="1" pageWidth="827" pageHeight="1169" math="0" shadow="0">
      <root>
        <mxCell id="0" />
        <mxCell id="1" parent="0" />
        <mxCell id="iAUiFamDQnuSsLCaNMS5-1" value="" style="rounded=1;whiteSpace=wrap;html=1;fillColor=#f8cecc;strokeColor=#b85450;" vertex="1" parent="1">
          <mxGeometry x="40" y="280" width="200" height="280" as="geometry" />
        </mxCell>
        <mxCell id="iAUiFamDQnuSsLCaNMS5-2" value="" style="rounded=1;whiteSpace=wrap;html=1;" vertex="1" parent="1">
          <mxGeometry x="320" y="280" width="200" height="280" as="geometry" />
        </mxCell>
        <mxCell id="iAUiFamDQnuSsLCaNMS5-3" value="" style="shape=cylinder3;whiteSpace=wrap;html=1;boundedLbl=1;backgroundOutline=1;size=15;fillColor=#dae8fc;strokeColor=#6c8ebf;" vertex="1" parent="1">
          <mxGeometry x="600" y="280" width="200" height="280" as="geometry" />
        </mxCell>
        <mxCell id="iAUiFamDQnuSsLCaNMS5-5" value="" style="endArrow=classic;startArrow=classic;html=1;rounded=0;exitX=1.015;exitY=0.525;exitDx=0;exitDy=0;exitPerimeter=0;entryX=0;entryY=0.525;entryDx=0;entryDy=0;entryPerimeter=0;" edge="1" parent="1" source="iAUiFamDQnuSsLCaNMS5-1" target="iAUiFamDQnuSsLCaNMS5-2">
          <mxGeometry width="50" height="50" relative="1" as="geometry">
            <mxPoint x="390" y="450" as="sourcePoint" />
            <mxPoint x="440" y="400" as="targetPoint" />
          </mxGeometry>
        </mxCell>
        <mxCell id="iAUiFamDQnuSsLCaNMS5-6" value="" style="endArrow=classic;startArrow=classic;html=1;rounded=0;entryX=0.025;entryY=0.529;entryDx=0;entryDy=0;entryPerimeter=0;exitX=0.99;exitY=0.525;exitDx=0;exitDy=0;exitPerimeter=0;" edge="1" parent="1" source="iAUiFamDQnuSsLCaNMS5-2" target="iAUiFamDQnuSsLCaNMS5-3">
          <mxGeometry width="50" height="50" relative="1" as="geometry">
            <mxPoint x="390" y="450" as="sourcePoint" />
            <mxPoint x="440" y="400" as="targetPoint" />
          </mxGeometry>
        </mxCell>
        <mxCell id="iAUiFamDQnuSsLCaNMS5-7" value="&lt;font style=&quot;font-size: 18px;&quot;&gt;&lt;b&gt;1&lt;/b&gt;&lt;/font&gt;" style="text;html=1;align=center;verticalAlign=middle;whiteSpace=wrap;rounded=0;" vertex="1" parent="1">
          <mxGeometry x="250" y="405" width="60" height="30" as="geometry" />
        </mxCell>
        <mxCell id="iAUiFamDQnuSsLCaNMS5-8" value="&lt;font style=&quot;font-size: 18px;&quot;&gt;&lt;b&gt;2&lt;/b&gt;&lt;/font&gt;" style="text;html=1;align=center;verticalAlign=middle;whiteSpace=wrap;rounded=0;" vertex="1" parent="1">
          <mxGeometry x="530" y="405" width="60" height="30" as="geometry" />
        </mxCell>
        <mxCell id="iAUiFamDQnuSsLCaNMS5-9" value="&lt;b&gt;&lt;font style=&quot;font-size: 18px;&quot;&gt;PG&lt;/font&gt;&lt;/b&gt;" style="text;html=1;align=center;verticalAlign=middle;whiteSpace=wrap;rounded=0;" vertex="1" parent="1">
          <mxGeometry x="670" y="405" width="60" height="30" as="geometry" />
        </mxCell>
        <mxCell id="iAUiFamDQnuSsLCaNMS5-10" value="&lt;font style=&quot;font-size: 15px;&quot;&gt;A&lt;/font&gt;" style="text;html=1;align=center;verticalAlign=middle;whiteSpace=wrap;rounded=0;" vertex="1" parent="1">
          <mxGeometry x="170" y="250" width="60" height="30" as="geometry" />
        </mxCell>
        <mxCell id="iAUiFamDQnuSsLCaNMS5-11" value="&lt;font style=&quot;font-size: 16px;&quot;&gt;B&lt;/font&gt;" style="text;html=1;align=center;verticalAlign=middle;whiteSpace=wrap;rounded=0;" vertex="1" parent="1">
          <mxGeometry x="460" y="250" width="60" height="30" as="geometry" />
        </mxCell>
        <mxCell id="iAUiFamDQnuSsLCaNMS5-12" value="&lt;font style=&quot;font-size: 16px;&quot;&gt;C&lt;/font&gt;" style="text;html=1;align=center;verticalAlign=middle;whiteSpace=wrap;rounded=0;" vertex="1" parent="1">
          <mxGeometry x="740" y="250" width="60" height="30" as="geometry" />
        </mxCell>
        <mxCell id="iAUiFamDQnuSsLCaNMS5-13" value="&lt;font style=&quot;font-size: 14px;&quot;&gt;A - Мобильное приложение&lt;/font&gt;" style="text;html=1;align=center;verticalAlign=middle;whiteSpace=wrap;rounded=0;" vertex="1" parent="1">
          <mxGeometry x="40" y="570" width="190" height="30" as="geometry" />
        </mxCell>
        <mxCell id="iAUiFamDQnuSsLCaNMS5-14" value="&lt;font style=&quot;font-size: 14px;&quot;&gt;B - Сервер&lt;/font&gt;" style="text;html=1;align=center;verticalAlign=middle;whiteSpace=wrap;rounded=0;" vertex="1" parent="1">
          <mxGeometry x="40" y="600" width="80" height="30" as="geometry" />
        </mxCell>
        <mxCell id="iAUiFamDQnuSsLCaNMS5-15" value="&lt;font style=&quot;font-size: 14px;&quot;&gt;С - Реялицонная база данных(PG)&lt;/font&gt;" style="text;html=1;align=center;verticalAlign=middle;whiteSpace=wrap;rounded=0;" vertex="1" parent="1">
          <mxGeometry x="40" y="630" width="230" height="30" as="geometry" />
        </mxCell>
        <mxCell id="iAUiFamDQnuSsLCaNMS5-16" value="&lt;font style=&quot;font-size: 14px;&quot;&gt;1 - Протокол взаимодействия http/https&lt;/font&gt;" style="text;html=1;align=center;verticalAlign=middle;whiteSpace=wrap;rounded=0;" vertex="1" parent="1">
          <mxGeometry x="30" y="670" width="280" height="30" as="geometry" />
        </mxCell>
        <mxCell id="iAUiFamDQnuSsLCaNMS5-17" value="&lt;font style=&quot;font-size: 14px;&quot;&gt;2 - Протокол взаимодекйствия TCP&lt;/font&gt;" style="text;html=1;align=center;verticalAlign=middle;whiteSpace=wrap;rounded=0;" vertex="1" parent="1">
          <mxGeometry x="30" y="700" width="260" height="30" as="geometry" />
        </mxCell>
        <mxCell id="iAUiFamDQnuSsLCaNMS5-18" value="" style="rounded=1;whiteSpace=wrap;html=1;" vertex="1" parent="1">
          <mxGeometry x="50" y="310" width="90" height="80" as="geometry" />
        </mxCell>
        <mxCell id="iAUiFamDQnuSsLCaNMS5-19" value="" style="rounded=1;whiteSpace=wrap;html=1;" vertex="1" parent="1">
          <mxGeometry x="140" y="310" width="90" height="80" as="geometry" />
        </mxCell>
        <mxCell id="iAUiFamDQnuSsLCaNMS5-20" value="Товар 1" style="text;html=1;align=center;verticalAlign=middle;whiteSpace=wrap;rounded=0;" vertex="1" parent="1">
          <mxGeometry x="65" y="335" width="60" height="30" as="geometry" />
        </mxCell>
        <mxCell id="iAUiFamDQnuSsLCaNMS5-21" value="Товар 2" style="text;html=1;align=center;verticalAlign=middle;whiteSpace=wrap;rounded=0;" vertex="1" parent="1">
          <mxGeometry x="155" y="335" width="60" height="30" as="geometry" />
        </mxCell>
        <mxCell id="iAUiFamDQnuSsLCaNMS5-22" value="" style="image;aspect=fixed;html=1;points=[];align=center;fontSize=12;image=img/lib/azure2/general/Heart.svg;" vertex="1" parent="1">
          <mxGeometry x="118.67" y="370" width="21.33" height="20" as="geometry" />
        </mxCell>
        <mxCell id="iAUiFamDQnuSsLCaNMS5-23" value="" style="image;aspect=fixed;html=1;points=[];align=center;fontSize=12;image=img/lib/azure2/general/Heart.svg;" vertex="1" parent="1">
          <mxGeometry x="208.67000000000002" y="370" width="21.33" height="20" as="geometry" />
        </mxCell>
      </root>
    </mxGraphModel>
  </diagram>
</mxfile>
